<svg viewBox="0 0 908 311" xmlns="http://www.w3.org/2000/svg">
<path d="M873.223 143a6 6 0 0 1-6 6h-21a6 6 0 0 0-6 6v34.5c0 3.333.166 6.417.5 9.25.333 2.667 1.083 5 2.25 7 1.166 2 2.916 3.583 5.25 4.75 2.5 1 5.75 1.5 9.75 1.5 2 0 4.583-.167 7.75-.5 3.123-.468 7.5 2.032 7.5 5.19v18.843c0 2.53-1.58 4.819-4.018 5.494a57.38 57.38 0 0 1-8.982 1.723c-4.5.5-8.917.75-13.25.75-6.334 0-12.167-.667-17.5-2-5.334-1.333-10-3.417-14-6.25-4-3-7.167-6.833-9.5-11.5-2.167-4.667-3.25-10.333-3.25-17V155a6 6 0 0 0-6-6h-12a6 6 0 0 1-6-6v-18a6 6 0 0 1 6-6h12a6 6 0 0 0 6-6V89a6 6 0 0 1 6-6h25.5a6 6 0 0 1 6 6v24a6 6 0 0 0 6 6h21a6 6 0 0 1 6 6v18ZM834.5 111.5a2.5 2.5 0 1 1-5 0 2.5 2.5 0 0 1 5 0Zm-.511-21.801c-.001-1.487-1.02-2.557-2.276-2.39-1.256.166-2.273 1.505-2.272 2.992l.01 13.819c.001 1.486 1.02 2.556 2.276 2.39 1.255-.166 2.272-1.506 2.271-2.992l-.009-13.82Z" fill="#FF6700" clip-rule="evenodd" fill-rule="evenodd"/>
<path d="M831.713 87.308c1.256-.166 2.275.904 2.276 2.39l.009 13.82c.001 1.486-1.016 2.826-2.271 2.992-1.256.166-2.275-.904-2.276-2.39l-.01-13.82c-.001-1.486 1.016-2.825 2.272-2.992ZM832 114a2.5 2.5 0 1 0 0-5 2.5 2.5 0 0 0 0 5Z" fill="#FFF9C2"/>
<path d="M748.226 150.076c-2.528 2.5-6.629 2.188-9.426-.007-4.732-3.713-10.416-5.569-17.05-5.569-3.167 0-6.25.75-9.25 2.25s-4.5 4.083-4.5 7.75c0 3 1.5 5.25 4.5 6.75 3.167 1.333 7.083 2.583 11.75 3.75 4.833 1 9.917 2.167 15.25 3.5 5.5 1.167 10.583 3.083 15.25 5.75 4.833 2.667 8.75 6.333 11.75 11 3.167 4.5 4.75 10.583 4.75 18.25 0 7.833-1.75 14.333-5.25 19.5-3.333 5-7.667 9.083-13 12.25-5.333 3-11.333 5.083-18 6.25-6.667 1.333-13.25 2-19.75 2-8.5 0-17.083-1.167-25.75-3.5-6.766-1.952-12.719-5.021-17.86-9.207-2.45-1.996-2.495-5.619-.379-7.967l14.282-15.852c2.47-2.742 6.781-2.581 9.509-.096 2.128 1.939 4.36 3.563 6.698 4.872 4.333 2.167 9.333 3.25 15 3.25 4.333 0 8.25-.583 11.75-1.75 3.5-1.333 5.25-3.667 5.25-7 0-3.167-1.583-5.5-4.75-7-3-1.667-6.917-3-11.75-4a437.313 437.313 0 0 0-15.25-3.5 70.045 70.045 0 0 1-15.25-5.75c-4.667-2.5-8.583-6-11.75-10.5-3-4.667-4.5-10.833-4.5-18.5 0-7.167 1.417-13.333 4.25-18.5 3-5.167 6.833-9.417 11.5-12.75 4.833-3.333 10.333-5.75 16.5-7.25a71.55 71.55 0 0 1 18.75-2.5c8 0 16.083 1.167 24.25 3.5 6.211 1.775 11.699 4.61 16.464 8.505 2.524 2.063 2.435 5.826.118 8.118l-14.106 13.953Zm-16.543 23.981a2.5 2.5 0 0 1 2.964-1.927c5.336 1.13 10.29 2.993 14.848 5.593 4.825 2.663 8.749 6.332 11.748 10.977 3.309 4.722 4.831 10.907 4.831 18.308a2.5 2.5 0 0 1-5 0c0-6.786-1.405-11.86-3.949-15.472a4.45 4.45 0 0 1-.059-.087c-2.559-3.977-5.884-7.086-10.001-9.356l-.033-.019c-4.093-2.336-8.562-4.023-13.421-5.053a2.5 2.5 0 0 1-1.928-2.964ZM762 218a2.5 2.5 0 1 0 0-5 2.5 2.5 0 0 0 0 5Z" fill="#FF6700" clip-rule="evenodd" fill-rule="evenodd"/>
<path d="M734.647 172.13a2.5 2.5 0 1 0-1.036 4.891c4.859 1.03 9.328 2.717 13.421 5.053l.033.019c4.117 2.27 7.442 5.379 10.001 9.356l.059.087c2.544 3.612 3.949 8.686 3.949 15.472a2.5 2.5 0 0 0 5 0c0-7.401-1.522-13.586-4.831-18.308-2.999-4.645-6.923-8.314-11.748-10.977-4.558-2.6-9.512-4.463-14.848-5.593ZM764.5 215.5a2.5 2.5 0 1 1-5 0 2.5 2.5 0 0 1 5 0Z" fill="#FFF9C2"/>
<path d="M646.226 215.339c2.732 2.003 3.286 5.894.934 8.332-5.251 5.442-11.481 9.802-18.691 13.079-9.167 4.167-18.667 6.25-28.5 6.25-9.334 0-18.167-1.5-26.5-4.5-8.167-3-15.334-7.25-21.5-12.75-6-5.667-10.75-12.417-14.25-20.25s-5.25-16.583-5.25-26.25c0-9.667 1.75-18.417 5.25-26.25 3.5-7.833 8.25-14.5 14.25-20 6.166-5.667 13.333-10 21.5-13 8.333-3 17.166-4.5 26.5-4.5 8.666 0 16.5 1.5 23.5 4.5 7.166 3 13.166 7.333 18 13 5 5.5 8.833 12.167 11.5 20 2.666 7.833 4 16.583 4 26.25V185a6 6 0 0 1-6 6h-73.614c-3.809 0-6.698 3.545-5.158 7.028 1.771 4.003 4.278 7.411 7.522 10.222 5 4.167 11.166 6.25 18.5 6.25 6.166 0 11.333-1.333 15.5-4a42.264 42.264 0 0 0 7.396-6.144c2.296-2.395 6.025-3.014 8.7-1.052l16.411 12.035ZM613.625 165.5c3.252 0 6.016-2.631 5.311-5.806-.867-3.904-2.772-7.386-5.717-10.444-4.334-4.5-9.917-6.75-16.75-6.75-4.167 0-7.834.667-11 2-3.167 1.333-5.917 3.083-8.25 5.25-2.167 2-3.917 4.417-5.25 7.25a23.815 23.815 0 0 0-.862 2.278c-1.054 3.279 1.76 6.222 5.204 6.222h37.314Zm12.648 62.569c.887 1.161.679 2.593-.466 3.198l-1.584-2.073c1.584 2.073 1.582 2.074 1.582 2.074l-.002.001-.007.004-.022.011-.038.019-.033.017c-.06.031-.145.074-.255.128-.22.107-.537.258-.947.442a49.97 49.97 0 0 1-3.529 1.415c-3.032 1.091-7.388 2.373-12.706 3.142-10.631 1.537-25.258 1.039-40.788-7.294-1.335-.716-1.96-2.186-1.398-3.282.563-1.096 2.102-1.404 3.437-.688 13.973 7.498 27.196 7.999 37.041 6.576 4.92-.712 8.958-1.9 11.76-2.908 1.4-.504 2.486-.961 3.214-1.287.364-.164.638-.295.817-.382l.195-.097.043-.022.005-.003.002-.001c1.144-.603 2.791-.152 3.679 1.01ZM631 228a2.5 2.5 0 1 0 0-5 2.5 2.5 0 0 0 0 5Z" fill="#FF6700" clip-rule="evenodd" fill-rule="evenodd"/>
<path d="M625.807 231.267c1.145-.605 1.353-2.037.466-3.198-.888-1.162-2.535-1.613-3.679-1.01l-.002.001-.005.003-.043.022-.195.097c-.179.087-.453.218-.817.382-.728.326-1.814.783-3.214 1.287a60.698 60.698 0 0 1-11.76 2.908c-9.845 1.423-23.068.922-37.041-6.576-1.335-.716-2.874-.408-3.437.688-.562 1.096.063 2.566 1.398 3.282 15.53 8.333 30.157 8.831 40.788 7.294 5.318-.769 9.674-2.051 12.706-3.142a49.97 49.97 0 0 0 3.529-1.415c.41-.184.727-.335.947-.442.11-.054.195-.097.255-.128l.033-.017.038-.019.022-.011.007-.004.002-.001s.002-.001-1.582-2.074l1.584 2.073ZM633.5 225.5a2.5 2.5 0 1 1-5 0 2.5 2.5 0 0 1 5 0Z" fill="#FFF9C2"/>
<path d="M488.097 100.5c5.103 0 7.876 5.965 4.588 9.866l-80.023 94.959a5.998 5.998 0 0 0-1.412 3.866V237a6 6 0 0 0 6 6h105.701c5.414 0 8.319-6.886 5.152-11.277-3.366-4.666-6.247-9.698-8.644-15.064a76.667 76.667 0 0 1-2.169-5.395c-.897-2.504-3.217-4.264-5.877-4.264h-38.422c-5.075 0-7.858-5.909-4.625-9.822l78.509-95.014a6 6 0 0 0 1.375-3.822V72a6 6 0 0 0-6-6H420.5a6 6 0 0 0-6 6v22.5a6 6 0 0 0 6 6h67.597Zm46.751.956c1.179.615 1.412 2.019.52 3.138l-34.733 43.558c-.892 1.119-2.571 1.527-3.75.912-1.179-.614-1.412-2.019-.52-3.137l34.733-43.559c.892-1.118 2.571-1.527 3.75-.912ZM493 157a2.5 2.5 0 1 0 0-5 2.5 2.5 0 0 0 0 5Z" fill="#FF6700" clip-rule="evenodd" fill-rule="evenodd"/>
<path d="M495.5 154.5a2.5 2.5 0 1 1-5 0 2.5 2.5 0 0 1 5 0ZM535.368 104.594c.892-1.119.659-2.523-.52-3.138-1.179-.615-2.858-.206-3.75.912l-34.733 43.559c-.892 1.118-.659 2.523.52 3.137 1.179.615 2.858.207 3.75-.912l34.733-43.558Z" fill="#FFF9C2"/>
<circle transform="rotate(-21.495 255.62 155.68)" cx="255.62" cy="155.68" r="120" fill="#FF6700"/>
<circle transform="rotate(-21.495 255.8 155.34)" cx="255.8" cy="155.34" r="116" fill="#FFF9C2"/>
<path d="M228.264 55.19a104.742 104.742 0 0 1 84.057 12.57c3.201 2.035 3.964 6.629 1.256 10.032l-48.056 60.405c-3.624 4.555-10.777 3.546-13.03-1.766a6.478 6.478 0 0 0-.075-.194l-28.284-71.82a7.13 7.13 0 0 0-.078-.195c-1.453-3.984.611-8.038 4.21-9.032Zm75.813 26.724c.91-1.142.673-2.575-.53-3.202-1.204-.627-2.916-.21-3.826.93l-34.734 43.559c-.91 1.141-.672 2.575.531 3.202 1.203.627 2.916.21 3.826-.931l34.733-43.558ZM217.007 67.22l-.074-.192c-1.654-3.905-5.928-5.462-9.238-3.736a104.741 104.741 0 0 0-52.914 66.51c-.946 3.644 1.58 7.491 5.82 8.18l.097.014 76.34 11.416.105.016c5.709.782 10.19-4.801 8.227-10.192l-.079-.196-28.284-71.82Zm-34.505 67.086c-.379 1.41-1.775 2.402-3.118 2.216l-18.051-2.503c-1.344-.187-2.126-1.481-1.748-2.89.378-1.41 1.774-2.402 3.118-2.216l18.051 2.503c1.343.187 2.126 1.481 1.748 2.89ZM151.506 151.67c.161-3.762 3.705-6.703 7.962-6.119l.103.016 76.34 11.415.098.015c5.756.935 8.401 7.734 4.755 12.317l-48.057 60.404c-2.707 3.403-7.355 3.693-10.058 1.031a104.74 104.74 0 0 1-31.143-79.079Zm84.362 13.323c1.392.153 2.655-.865 2.821-2.272.165-1.408-.829-2.673-2.222-2.825l-6.838-.749c-1.393-.152-2.656.865-2.821 2.273-.166 1.407.828 2.672 2.221 2.824l6.839.749ZM295.273 245.057l.07.184c1.652 3.911 5.93 5.471 9.242 3.743a104.739 104.739 0 0 0 52.914-66.51c.953-3.672-1.621-7.552-5.922-8.195l-76.34-11.416c-5.761-.861-10.307 4.762-8.324 10.186l.076.188 28.284 71.82Zm54.439-63.329c1.343.187 2.739-.805 3.118-2.215.378-1.41-.405-2.704-1.748-2.89l-18.051-2.503c-1.344-.187-2.74.805-3.118 2.215-.378 1.41.405 2.704 1.748 2.89l18.051 2.503ZM246.759 174.081c3.626-4.557 10.784-3.545 13.033 1.774l.029.075.043.11 28.284 71.82.074.186c1.46 3.988-.605 8.047-4.207 9.042a104.741 104.741 0 0 1-84.056-12.57c-3.201-2.036-3.964-6.629-1.256-10.032l48.056-60.405Zm-4.374 16.028c1.211.61 1.467 2.04.572 3.193l-34.08 43.896c-.896 1.153-2.603 1.592-3.814.982-1.211-.611-1.467-2.041-.572-3.194l34.08-43.895c.895-1.153 2.603-1.593 3.814-.982ZM319.573 82.557c2.707-3.403 7.355-3.693 10.058-1.03a104.74 104.74 0 0 1 31.143 79.079c-.163 3.791-3.76 6.748-8.061 6.105l-76.34-11.416c-5.826-.871-8.524-7.723-4.857-12.333l48.057-60.405Zm-33.648 68.41c-.155 1.407-1.412 2.431-2.807 2.287l-6.851-.709a2.53 2.53 0 0 1-2.245-2.809c.155-1.407 1.412-2.431 2.807-2.286l6.851.708a2.531 2.531 0 0 1 2.245 2.809Z" fill="#FF6700" clip-rule="evenodd" fill-rule="evenodd"/>
<path d="m222.81 271.12c59.86-28.448 88.264-98.865 63.597-161.5-12.508-31.76-36.359-55.679-65.072-68.935a121.58 121.58 0 0 0-9.682 3.35c-61.665 24.285-91.968 93.96-67.683 155.62 14.249 36.182 44.125 61.566 78.84 71.462z" fill="#9C6444" fill-opacity=".25"/>
<circle transform="rotate(-21.495 155.62 155.6)" cx="155.62" cy="155.6" r="120" fill="#FF6700"/>
<circle transform="rotate(-21.495 155.44 155.34)" cx="155.44" cy="155.34" r="116" fill="#FFF9C2"/>
<path d="M127.903 55.19a104.74 104.74 0 0 1 84.056 12.57c3.202 2.035 3.964 6.629 1.257 10.032l-48.056 60.405c-3.624 4.555-10.777 3.546-13.03-1.766l-.075-.194-28.284-71.82-.078-.195c-1.453-3.984.611-8.038 4.21-9.032Zm75.813 26.724c.91-1.142.672-2.575-.531-3.202-1.203-.627-2.916-.21-3.826.93l-34.733 43.559c-.91 1.141-.672 2.575.531 3.202 1.203.627 2.916.21 3.826-.931l34.733-43.558ZM116.646 67.22l-.074-.192c-1.655-3.905-5.928-5.462-9.239-3.736a104.742 104.742 0 0 0-52.913 66.51c-.946 3.644 1.58 7.491 5.82 8.18l.097.014 76.34 11.416.105.016c5.709.782 10.19-4.801 8.226-10.192l-.078-.196-28.284-71.82ZM82.14 134.306c-.378 1.41-1.774 2.402-3.118 2.216l-18.05-2.503c-1.344-.187-2.126-1.481-1.748-2.89.378-1.41 1.774-2.402 3.118-2.216l18.05 2.503c1.344.187 2.127 1.481 1.748 2.89ZM51.145 151.67c.161-3.762 3.704-6.703 7.962-6.119l.103.016 76.34 11.415.098.015c5.755.935 8.401 7.734 4.754 12.317l-48.056 60.404c-2.707 3.403-7.355 3.693-10.059 1.031a104.741 104.741 0 0 1-31.142-79.079Zm84.362 13.323c1.392.153 2.655-.865 2.821-2.272.165-1.408-.829-2.673-2.222-2.825l-6.839-.749c-1.392-.152-2.655.865-2.821 2.273-.165 1.407.829 2.672 2.222 2.824l6.839.749ZM194.911 245.057l.071.184c1.652 3.911 5.929 5.471 9.242 3.743a104.739 104.739 0 0 0 52.914-66.51c.953-3.672-1.622-7.552-5.922-8.195l-76.34-11.416c-5.761-.861-10.307 4.762-8.324 10.186l.076.188 28.283 71.82Zm54.44-63.329c1.343.187 2.739-.805 3.117-2.215.379-1.41-.404-2.704-1.748-2.89l-18.05-2.503c-1.344-.187-2.74.805-3.118 2.215-.378 1.41.404 2.704 1.748 2.89l18.051 2.503ZM146.398 174.081c3.625-4.557 10.784-3.545 13.033 1.774l.029.075.043.11 28.283 71.82.075.186c1.46 3.988-.605 8.047-4.207 9.042a104.741 104.741 0 0 1-84.056-12.57c-3.202-2.036-3.964-6.629-1.257-10.032l48.057-60.405Zm-4.374 16.028c1.211.61 1.467 2.04.572 3.193l-34.081 43.896c-.895 1.153-2.602 1.592-3.814.982-1.211-.611-1.467-2.041-.571-3.194l34.08-43.895c.895-1.153 2.603-1.593 3.814-.982ZM219.212 82.557c2.707-3.403 7.354-3.693 10.058-1.03a104.74 104.74 0 0 1 31.143 79.079c-.163 3.791-3.76 6.748-8.061 6.105l-76.34-11.416c-5.826-.871-8.524-7.723-4.857-12.333l48.057-60.405Zm-33.648 68.41c-.155 1.407-1.412 2.431-2.807 2.287l-6.851-.709a2.53 2.53 0 0 1-2.245-2.809c.155-1.407 1.411-2.431 2.806-2.286l6.852.708a2.531 2.531 0 0 1 2.245 2.809Z" fill="#FF6700" clip-rule="evenodd" fill-rule="evenodd"/>
</svg>